<svg version="1.1" xmlns="http://www.w3.org/2000/svg" viewBox="0 0 98.55457404548861 100.9138465159649" width="295.6637221364658" height="302.7415395478947">
  <!-- svg-source:excalidraw -->
  
  <defs>
    <style>
      @font-face {
        font-family: "Virgil";
        src: url("https://excalidraw.com/Virgil.woff2");
      }
      @font-face {
        font-family: "Cascadia";
        src: url("https://excalidraw.com/Cascadia.woff2");
      }
    </style>
  </defs>
  <g stroke-linecap="round" transform="translate(10 10) rotate(0 39.277287022744304 40.45692325798245)"><path d="M0 0 C0 0, 0 0, 0 0 M0 0 C0 0, 0 0, 0 0 M0.5 23.74 C3.68 18.73, 9.72 13.83, 22.2 -1.5 M0.68 23.93 C5.08 18.32, 9.7 12.07, 20.41 0.69 M-0.88 47.33 C16.06 31.16, 34.5 10.18, 41.63 1.64 M-0.98 48.18 C9.93 36.87, 22.18 25.11, 42.03 -0.36 M-1.02 72.46 C15.99 54.66, 32.35 32.8, 64.46 1.37 M-0.09 72.14 C17.51 53.49, 33.1 36.1, 63.77 -0.24 M7.12 89.85 C35.16 59.41, 62.28 27.93, 80.75 1.94 M7.49 87.9 C36.69 55.59, 64.97 23.85, 81.64 2.19 M28.16 86.99 C43.14 72.69, 55.39 60.36, 83.62 28.75 M28.82 88.88 C43.28 73.97, 54.79 60.7, 82.17 27.54 M51.17 87.84 C61.22 77.33, 67.03 68.46, 82.33 51.76 M49.85 88.27 C62.3 74.25, 74.14 61.21, 82.64 52.22 M72.33 88.93 C75.61 81.91, 80.68 78.71, 80.82 76.03 M71.51 88.31 C74.96 83.43, 78.44 80.84, 82.23 75.91" stroke="#be4bdb" stroke-width="2" fill="none"></path><path d="M1.35 0.01 C29.03 1.64, 60.52 -1.31, 79.53 0.73 M-0.51 0.87 C20.25 0.3, 41.67 0.82, 78.77 -0.79 M79.56 -0.77 C80.61 22.81, 79.92 40.99, 77.8 79.35 M79.53 -0.29 C78.56 31.21, 79.96 62.13, 78.94 80.44 M76.59 82.78 C46.1 81.07, 17.61 80.65, 0.03 80.77 M78.8 80.51 C62.55 80.06, 45.78 80.77, 0.44 81.44 M-0.86 82.28 C1.46 54.55, 1.68 28.76, 0.67 -1.05 M-0.7 81.06 C0.66 62.87, -0.05 44.08, -0.74 0.4" stroke="#862e9c" stroke-width="4" fill="none"></path></g></svg>