<svg version="1.1" xmlns="http://www.w3.org/2000/svg" viewBox="0 0 110.6180121959951 434.7812232094693" width="331.8540365879853" height="1304.343669628408">
  <!-- svg-source:excalidraw -->
  
  <defs>
    <style>
      @font-face {
        font-family: "Virgil";
        src: url("https://excalidraw.com/Virgil.woff2");
      }
      @font-face {
        font-family: "Cascadia";
        src: url("https://excalidraw.com/Cascadia.woff2");
      }
    </style>
  </defs>
  <g stroke-linecap="round" transform="translate(-152.08160550673665 172.08160550673847) rotate(809.9999999999997 207.39061160473443 45.309006097996416)"><path d="M0 0 C0 0, 0 0, 0 0 M0 0 C0 0, 0 0, 0 0 M-0.71 22.87 C6.81 15.75, 9.85 10.56, 22.07 1.88 M0.76 23.47 C6.92 16.27, 11.47 9.81, 20.47 0.29 M-0.08 49.22 C14.7 32.87, 27.66 17.95, 43.03 -2.07 M-0.44 49.77 C11.65 37.07, 20.5 23.93, 42.43 0.46 M-0.7 72.8 C16.27 52.41, 32.24 32.7, 62.48 0.61 M0.25 73.82 C15.07 56.95, 29.18 39.47, 64.46 -0.71 M2.19 91.94 C28.83 65.93, 49.03 42.07, 83.88 0.69 M4.44 93.07 C21.97 74.41, 39.55 53.01, 85.58 -0.91 M25.56 92.97 C55.52 58.4, 82.02 24.33, 107.77 0.82 M25.9 93.28 C52.4 60.79, 79.88 29.31, 105.34 0.42 M47.15 95.37 C65.14 72.06, 84.69 46.63, 126.27 0.13 M45.9 94.43 C69.16 65.43, 94.48 37.32, 126.07 0.38 M65.16 95.14 C97.23 60.86, 124.41 25.56, 146.96 0.98 M66.59 93.89 C97.65 57.68, 129.57 19.99, 147.45 0.26 M89.76 95.6 C118.46 58.21, 146.76 24.79, 168.07 1.34 M87.26 94.01 C111.78 66.7, 135.7 41.11, 169.43 -0.41 M108.9 92.13 C135.8 65.25, 159.57 33.95, 190.3 1.55 M109.84 94.59 C127.27 70.47, 146.19 48.75, 190.79 -0.25 M128.88 94.75 C155.91 62.07, 185.05 30.78, 211.4 0.93 M130.21 94.32 C157.81 64.23, 182.18 36.07, 211.37 0.34 M153.51 91.94 C172.38 73.46, 187.86 51.18, 231.27 -0.45 M151.05 94.32 C182.84 57.44, 213.99 19.02, 234 -0.3 M173.29 92.44 C191.46 72.17, 206.89 53.89, 255.25 -1.94 M173.76 92.74 C205.52 58, 235.31 21.36, 255.4 0.61 M192.62 93.09 C209.43 73.89, 229.15 54.46, 275.23 -0.49 M193.4 94.37 C212.46 73.22, 230.51 54.36, 276.05 0.78 M214.97 92.61 C235.3 70.72, 250.1 53.49, 296.86 1.15 M216.55 93.23 C236.62 68.11, 258.01 43.15, 297.16 0.51 M238.07 91.4 C261.11 67.45, 285.12 39.85, 316.74 0.26 M236.24 94.15 C266.29 60.73, 295.51 26.41, 318.51 -0.75 M259.12 93.43 C288.57 60.57, 317.35 25.9, 337.64 -2.07 M257.85 93.38 C289.66 55.67, 321.27 21.23, 339.43 -0.78 M277.27 94.71 C309.62 56.14, 339.4 24.24, 360.96 1.66 M279.37 92.93 C303.7 65.98, 326.7 37.73, 359.97 0.75 M301.5 94.15 C315.17 74.28, 331.53 53.7, 380.6 2.14 M299.92 94.15 C327.13 63.31, 355.33 31.98, 380.5 0.83 M321.81 93.88 C352.69 59.34, 381.23 28.27, 404.2 -0.42 M320.73 93.83 C337.17 76.42, 354.27 56.21, 403.61 0.26 M341.06 94.02 C362.95 70.81, 381.96 51.09, 418.99 5.07 M341.65 93.81 C369.24 63.44, 395.97 31.74, 419.79 4.76 M365.52 93.3 C383.89 67.53, 404.82 44.7, 419.1 29.13 M363.41 93.32 C378.27 76.7, 393.06 58.32, 419.36 28.32 M386.01 94.83 C400.28 76.41, 413.56 62.98, 419.47 53.04 M385.56 93.55 C393.3 83.12, 402.17 73.7, 420.11 54.3 M405.12 93.92 C412.6 88.9, 413.26 83.53, 420.35 77.95 M407.31 93.26 C409.42 90.58, 411.89 86.46, 420.58 77.33" stroke="#228be6" stroke-width="2" fill="none"></path><path d="M-0.2 -0.14 C159.69 1.08, 318.84 2.75, 414.97 0.14 M0.04 -0.12 C148.33 1.95, 296.68 1.88, 415.24 0.4 M414.74 -0.75 C413.96 30.75, 414.01 59.48, 415.71 89.91 M414.32 -0.4 C414.58 35.86, 415.29 70.4, 415.73 90.8 M414.72 89.66 C294.7 90.25, 173.37 91.55, -0.39 90.67 M415.03 91.15 C268.64 90.04, 122.94 90.03, 0.23 90.77 M-0.53 89.93 C0.77 60.79, -2.24 30.65, -0.69 1.15 M-0.53 91.52 C0.72 56.93, 0.98 25.96, 0.21 -0.87" stroke="#1864ab" stroke-width="4" fill="none"></path></g></svg>