<svg version="1.1" xmlns="http://www.w3.org/2000/svg" viewBox="0 0 1228.290478976208 833.533137897608" width="3684.8714369286245" height="2500.599413692824">
  <!-- svg-source:excalidraw -->
  
  <defs>
    <style>
      @font-face {
        font-family: "Virgil";
        src: url("https://excalidraw.com/Virgil.woff2");
      }
      @font-face {
        font-family: "Cascadia";
        src: url("https://excalidraw.com/Cascadia.woff2");
      }
    </style>
  </defs>
  <rect x="0" y="0" width="1228.290478976208" height="833.533137897608" fill="#ffffff"></rect><g stroke-linecap="round" transform="translate(10.000000000000227 10.000000000000455) rotate(720 604.1452394881039 406.7665689488035)"><path d="M-0.26 -3.01 L1206.05 2.76 L1211.36 814.45 L-0.41 812.52" stroke="none" stroke-width="0" fill="#fff"></path><path d="M-1.51 0.07 C441.15 -8.93, 880.79 -7.1, 1209.01 0.97 M0.4 -0.11 C441.76 -4.15, 883.28 -3.97, 1208.12 0.65 M1209.05 -0.35 C1207.49 302.51, 1208.33 602.11, 1209.32 812.2 M1208.92 0.09 C1203.1 236.04, 1202.01 470.04, 1208.26 812.95 M1209.04 813.14 C742.96 803.48, 275.7 804.93, 1.19 812.45 M1207.52 814.26 C961.85 821.17, 716.19 821.88, 0.33 813.42 M-0.71 814.28 C0.68 629.29, 2.48 443.51, 0.96 1.01 M-0.36 814.21 C-3.37 568.39, -4.12 321.31, 0.56 0.26" stroke="#000000" stroke-width="4" fill="none"></path></g></svg>