<svg version="1.1" xmlns="http://www.w3.org/2000/svg" viewBox="0 0 95.84131065604674 97.91915478360943" width="287.52393196814023" height="293.7574643508283">
  <!-- svg-source:excalidraw -->
  
  <defs>
    <style>
      @font-face {
        font-family: "Virgil";
        src: url("https://excalidraw.com/Virgil.woff2");
      }
      @font-face {
        font-family: "Cascadia";
        src: url("https://excalidraw.com/Cascadia.woff2");
      }
    </style>
  </defs>
  <g stroke-linecap="round" transform="translate(10 10) rotate(0 37.92065532802337 38.959577391804714)"><path d="M0 0 C0 0, 0 0, 0 0 M0 0 C0 0, 0 0, 0 0 M-0.31 24.38 C6 18.46, 11.85 8.21, 19.61 0.04 M-0.19 23.81 C8.96 15.56, 16.24 5.57, 21.81 -0.35 M1.33 48.74 C13.46 31.84, 29.07 18.97, 42.24 1.6 M0.25 49.7 C14.11 33.9, 28.06 17.67, 43.14 -0.11 M0.47 71.82 C16.42 56.12, 29.37 37.85, 64.73 -1.01 M-0.24 72.11 C20.81 48.45, 41.78 25.86, 63.68 -0.05 M10.31 87.27 C35.95 56.91, 60.62 28.75, 82.29 4.59 M9.37 86.41 C32.66 59.53, 57.91 31.52, 81.57 3.55 M30.94 86.64 C40.69 72.92, 52.6 62.21, 79.84 30.44 M30.14 85.94 C48.78 63.38, 69.69 40.59, 81.64 28.26 M53.56 88.37 C59.49 76, 69.76 68.52, 82.78 55.14 M52.21 86.16 C60.09 79.74, 66.07 71.96, 81.05 53.58" stroke="#fd7e14" stroke-width="2" fill="none"></path><path d="M0.88 -1.57 C16.5 -1.25, 33.65 -0.46, 77.18 -0.89 M0.31 0.99 C28.23 0, 54.83 0.48, 75.87 -0.54 M76.69 0.81 C76.14 21, 77.04 47.72, 74.63 77.74 M75.61 -0.42 C76.28 27.57, 74.57 54.44, 76.19 78.26 M76.05 79.5 C50.37 78.37, 24.02 77.76, -0.59 78.02 M76.66 77.53 C51.38 77.96, 24.79 78.99, 0.61 77.77 M-1.17 79.52 C-1.12 59.13, -0.43 42.06, -0.17 -1.03 M0.82 78.06 C0.32 49.63, 1.34 20.2, 0.6 0.2" stroke="#e67700" stroke-width="4" fill="none"></path></g></svg>