<svg version="1.1" xmlns="http://www.w3.org/2000/svg" viewBox="0 0 208.7479476189369 213.9191242660313" width="626.2438428568107" height="641.7573727980939">
  <!-- svg-source:excalidraw -->
  
  <defs>
    <style>
      @font-face {
        font-family: "Virgil";
        src: url("https://excalidraw.com/Virgil.woff2");
      }
      @font-face {
        font-family: "Cascadia";
        src: url("https://excalidraw.com/Cascadia.woff2");
      }
    </style>
  </defs>
  <g stroke-linecap="round" transform="translate(10 10) rotate(0 94.37397380946845 96.95956213301565)"><path d="M0 0 C0 0, 0 0, 0 0 M0 0 C0 0, 0 0, 0 0 M-1.73 25.13 C8.35 15.71, 12.91 9.88, 22.66 -0.31 M1.04 24.27 C5.27 18.47, 10.08 12.3, 20.28 -1.04 M-0.92 50.66 C12.16 35.45, 27.73 18.31, 40.96 -0.56 M-0.65 49.47 C13.55 32.52, 28.21 15.88, 43.01 0.03 M0.21 74.86 C12.5 55.7, 27.33 39.89, 65.06 -1.83 M0.75 72.05 C25.33 44.16, 49.93 15.53, 64.58 0.51 M1.16 97.57 C32.21 61.27, 64.06 19.58, 85.33 -0.63 M0.5 97.6 C22.91 69.19, 47.4 42.34, 85.46 0.42 M-1.31 122.94 C22.61 96.23, 42.76 73.02, 107.46 0.15 M-0.27 121.65 C36.14 81.36, 71.26 40.5, 105.58 -0.85 M-0.58 146.49 C34.83 103.62, 72.9 63.21, 127.01 -0.16 M0.79 145.65 C50.1 91.4, 97.75 35.62, 126.51 -0.23 M0.83 172.46 C38.53 123.78, 81.08 78.5, 149.06 -1.01 M0.05 170.28 C44.21 118.76, 89.77 67.65, 148.03 0.58 M0.04 193.96 C47.97 138, 94.94 83.38, 168.44 -1.07 M0.66 194.58 C56.56 131.96, 112.49 67.74, 169.1 -0.37 M21.14 193.41 C77.94 128.01, 135.27 65.29, 190.17 1.75 M21.5 194.21 C81.91 129.19, 138.64 61.85, 189.63 1.63 M41.78 196.13 C99.78 126.89, 158 59.47, 189.11 26.55 M42.13 194.15 C99.4 131.03, 156.6 63.93, 189.75 25.12 M65.56 195.41 C92.6 161.95, 122.81 126.13, 188.9 48.94 M64.36 195.17 C89.88 167.36, 116.2 137.67, 189.81 50.18 M87.18 194.9 C111.22 162.73, 138.7 133.83, 191.41 72.84 M85.69 195.08 C114.27 161.24, 143.04 126.86, 190.2 73.49 M105.82 196.35 C133.02 165.39, 157.41 137.73, 190.96 98.65 M106.57 194.3 C126.78 171.29, 147.13 148.29, 190.13 99.26 M126.12 192.94 C150.96 167.91, 175.22 139.75, 191.92 124.33 M127.92 193.66 C145.36 173.31, 162.89 154.55, 190.33 123.25 M149.21 193.3 C167.18 174.06, 179.92 158.7, 189.26 148.61 M148.01 193.96 C162.9 178.98, 176.35 163.23, 190.42 148.49 M169.96 195.34 C175.26 188.12, 182.15 178.36, 188.96 172.79 M170.34 194.53 C176.22 187.31, 183.43 179.77, 188.97 170.91" stroke="#fa5252" stroke-width="2" fill="none"></path><path d="M1.66 0.86 C62.5 0.48, 122.6 1.05, 188.06 -1.46 M-0.4 0.07 C72.86 1.29, 146.99 0.13, 188.38 -0.76 M188.23 1.42 C188.08 68.39, 186.56 133.05, 190.41 194.83 M188.86 0.95 C186.14 55.26, 186.33 111.19, 189.04 193.96 M187.67 194.27 C127.07 192.12, 62.39 195.41, 0.28 194.01 M189.11 193.9 C125.77 192.72, 60.5 193.1, 0.81 194.51 M-0.58 194.43 C-2.72 149.88, -0.39 103.83, -1.28 -1.45 M0.21 194.04 C1.43 119.87, 1.24 46.28, -0.79 -0.94" stroke="#c92a2a" stroke-width="4" fill="none"></path></g></svg>