<?xml version="1.0" standalone="no"?>
<svg version="1.1" id="Delete" sodipodi:docname="player_slug_cut.svg" inkscape:version="1.1.2 (b8e25be833, 2022-02-05)" x="0px" y="0px" width="3.25in" height="5.25in" viewBox="0 0 292.50001 472.50002" enable-background="new 0 0 234 378" xml:space="preserve" inkscape:export-filename="\\wsl$\Ubuntu\root\Programs\letter-labyrinths\assets\player_slug_03.png" inkscape:export-xdpi="300" inkscape:export-ydpi="300" xmlns:inkscape="http://www.inkscape.org/namespaces/inkscape" xmlns:sodipodi="http://sodipodi.sourceforge.net/DTD/sodipodi-0.dtd" xmlns="http://www.w3.org/2000/svg" xmlns:svg="http://www.w3.org/2000/svg" xmlns:rdf="http://www.w3.org/1999/02/22-rdf-syntax-ns#" xmlns:cc="http://creativecommons.org/ns#" xmlns:dc="http://purl.org/dc/elements/1.1/" style="width: 428.277px; height: 793.105px;"><path id="rect1087" style="fill:none;stroke:#ff0000;stroke-width:1.04424" d="M 56.77 29.737445831298828 L 145.6190185546875 29.737445831298828" class=""/><path d="M 146.33900451660156 29.737445831298828 L 235.1879425048828 29.737445831298828"/><path d="M 235.72999572753906 29.915374755859375 L 235.72999572753906 118.76431274414062"/><path d="M 235.72999572753906 119.48431396484375 L 235.72999572753906 208.333251953125"/><path d="M 235.3699493408203 208.69320678710938 L 146.52101135253906 208.69322204589844"/><path d="M 146.33897399902344 265.247314453125 L 235.1879119873047 265.247314453125"/><path d="M 235.72999572753906 265.42523193359375 L 235.72999572753906 354.274169921875"/><path d="M 235.72999572753906 354.9941711425781 L 235.72999572753906 443.8431091308594"/><path d="M 235.3699493408203 444.20306396484375 L 146.52101135253906 444.20306396484375"/><path d="M 145.80101013183594 444.20306396484375 L 56.95206832885742 444.20306396484375"/><path d="M 56.769996643066406 443.6651611328125 L 56.77000427246094 354.81622314453125"/><path d="M 56.77000427246094 354.09625244140625 L 56.77 265.247314453125 L 56.77 265.247314453125"/><path id="rect1087-6" style="fill:none;stroke:#ff0000;stroke-width:1.04424" d="M 56.77 265.247314453125 L 145.61898803710938 265.247314453125" class=""/><path d="M 145.80101013183594 208.69322204589844 L 56.95206832885742 208.69320678710938"/><path d="M 56.769996643066406 208.15528869628906 L 56.77000427246094 119.30635070800781"/><path d="M 56.77000427246094 118.58638000488281 L 56.77 29.737445831298828 L 56.77 29.737445831298828"/></svg>